<svg xmlns="http://www.w3.org/2000/svg" width="1200" height="900" viewBox="0 0 1200 900"><defs><linearGradient id="sky" y2="1"><stop stop-color="#ffffff"/><stop offset="1" stop-color="#ffffff"/></linearGradient></defs><path fill="url(#sky)" d="M0 0h1200v900H0z"/><path fill="#000000" d="M0 390 220 270l180 145 190-180 240 188 160-140 210 120v497H0z"/><path fill="#000000" d="m0 525 240-125 210 134 200-163 200 143 175-125 175 90v421H0z"/><path fill="#ffffff" d="M520 900 580 590h42L700 900z"/><path fill="#ffffff" d="M598 900 608 690h12l35 210z"/><path fill="#000000" d="m50 900 175-450 210 450zM980 900l100-430 120 430z"/><path fill="#000000" d="M280 900 365 560l100 340zM850 900l80-330 100 330z"/></svg>
